<svg xmlns="http://www.w3.org/2000/svg" viewBox="0 0 16 16" fill="none">
  <!-- Pixel art grid: 16x16 -->
  
  <!-- Ear tufts -->
  <rect x="3" y="1" width="1" height="1" fill="#000000"/>
  <rect x="12" y="1" width="1" height="1" fill="#000000"/>
  
  <!-- Head top row -->
  <rect x="4" y="2" width="1" height="1" fill="#000000"/>
  <rect x="5" y="2" width="1" height="1" fill="#000000"/>
  <rect x="6" y="2" width="1" height="1" fill="#000000"/>
  <rect x="7" y="2" width="1" height="1" fill="#000000"/>
  <rect x="8" y="2" width="1" height="1" fill="#000000"/>
  <rect x="9" y="2" width="1" height="1" fill="#000000"/>
  <rect x="10" y="2" width="1" height="1" fill="#000000"/>
  <rect x="11" y="2" width="1" height="1" fill="#000000"/>
  
  <!-- Sunglasses Frame Top -->
  <rect x="3" y="3" width="1" height="1" fill="#1a1a1a"/>
  <rect x="4" y="3" width="1" height="1" fill="#1a1a1a"/>
  <rect x="5" y="3" width="1" height="1" fill="#1a1a1a"/>
  <rect x="6" y="3" width="1" height="1" fill="#1a1a1a"/>
  <rect x="7" y="3" width="1" height="1" fill="#1a1a1a"/>
  <rect x="8" y="3" width="1" height="1" fill="#1a1a1a"/>
  <rect x="9" y="3" width="1" height="1" fill="#1a1a1a"/>
  <rect x="10" y="3" width="1" height="1" fill="#1a1a1a"/>
  <rect x="11" y="3" width="1" height="1" fill="#1a1a1a"/>
  <rect x="12" y="3" width="1" height="1" fill="#1a1a1a"/>
  
  <!-- Sunglasses Left Lens with shimmer -->
  <rect x="3" y="4" width="1" height="1" fill="#1a1a1a"/>
  <rect x="4" y="4" width="1" height="1" fill="#00d4ff"/>
  <rect x="5" y="4" width="1" height="1" fill="#1a1a1a"/>
  <rect x="6" y="4" width="1" height="1" fill="#1a1a1a"/>
  <!-- Bridge -->
  <rect x="7" y="4" width="1" height="1" fill="#1a1a1a"/>
  <rect x="8" y="4" width="1" height="1" fill="#1a1a1a"/>
  <!-- Right Lens with shimmer -->
  <rect x="9" y="4" width="1" height="1" fill="#1a1a1a"/>
  <rect x="10" y="4" width="1" height="1" fill="#1a1a1a"/>
  <rect x="11" y="4" width="1" height="1" fill="#00d4ff"/>
  <rect x="12" y="4" width="1" height="1" fill="#1a1a1a"/>
  
  <!-- Sunglasses Middle Row -->
  <rect x="3" y="5" width="1" height="1" fill="#1a1a1a"/>
  <rect x="4" y="5" width="1" height="1" fill="#1a1a1a"/>
  <rect x="5" y="5" width="1" height="1" fill="#0099cc"/>
  <rect x="6" y="5" width="1" height="1" fill="#1a1a1a"/>
  <rect x="7" y="5" width="1" height="1" fill="#1a1a1a"/>
  <rect x="8" y="5" width="1" height="1" fill="#1a1a1a"/>
  <rect x="9" y="5" width="1" height="1" fill="#1a1a1a"/>
  <rect x="10" y="5" width="1" height="1" fill="#0099cc"/>
  <rect x="11" y="5" width="1" height="1" fill="#1a1a1a"/>
  <rect x="12" y="5" width="1" height="1" fill="#1a1a1a"/>
  
  <!-- Sunglasses Bottom -->
  <rect x="3" y="6" width="1" height="1" fill="#1a1a1a"/>
  <rect x="4" y="6" width="1" height="1" fill="#1a1a1a"/>
  <rect x="5" y="6" width="1" height="1" fill="#1a1a1a"/>
  <rect x="6" y="6" width="1" height="1" fill="#1a1a1a"/>
  <rect x="7" y="6" width="1" height="1" fill="#1a1a1a"/>
  <rect x="8" y="6" width="1" height="1" fill="#1a1a1a"/>
  <rect x="9" y="6" width="1" height="1" fill="#1a1a1a"/>
  <rect x="10" y="6" width="1" height="1" fill="#1a1a1a"/>
  <rect x="11" y="6" width="1" height="1" fill="#1a1a1a"/>
  <rect x="12" y="6" width="1" height="1" fill="#1a1a1a"/>
  
  <!-- Beak -->
  <rect x="7" y="7" width="1" height="1" fill="#000000"/>
  <rect x="8" y="7" width="1" height="1" fill="#000000"/>
  <rect x="7" y="8" width="1" height="1" fill="#000000"/>
  <rect x="8" y="8" width="1" height="1" fill="#000000"/>
  
  <!-- Body -->
  <rect x="2" y="7" width="1" height="1" fill="#000000"/>
  <rect x="13" y="7" width="1" height="1" fill="#000000"/>
  <rect x="2" y="8" width="1" height="1" fill="#000000"/>
  <rect x="13" y="8" width="1" height="1" fill="#000000"/>
  <rect x="2" y="9" width="1" height="1" fill="#000000"/>
  <rect x="13" y="9" width="1" height="1" fill="#000000"/>
  <rect x="2" y="10" width="1" height="1" fill="#000000"/>
  <rect x="13" y="10" width="1" height="1" fill="#000000"/>
  <rect x="3" y="11" width="1" height="1" fill="#000000"/>
  <rect x="12" y="11" width="1" height="1" fill="#000000"/>
  <rect x="4" y="12" width="1" height="1" fill="#000000"/>
  <rect x="11" y="12" width="1" height="1" fill="#000000"/>
  <rect x="5" y="13" width="1" height="1" fill="#000000"/>
  <rect x="10" y="13" width="1" height="1" fill="#000000"/>
  
  <!-- Feet -->
  <rect x="5" y="14" width="1" height="1" fill="#000000"/>
  <rect x="6" y="14" width="1" height="1" fill="#000000"/>
  <rect x="9" y="14" width="1" height="1" fill="#000000"/>
  <rect x="10" y="14" width="1" height="1" fill="#000000"/>
</svg>
